<?xml version="1.0" encoding="UTF-8"?>
<svg width="438px" height="63px" viewBox="0 0 438 63" version="1.1" xmlns="http://www.w3.org/2000/svg" xmlns:xlink="http://www.w3.org/1999/xlink">
    <!-- Generator: Sketch 52.6 (67491) - http://www.bohemiancoding.com/sketch -->
    <title>blob-shape (17)</title>
    <desc>Created with Sketch.</desc>
    <g id="ingreso" stroke="none" stroke-width="1" fill="none" fill-rule="evenodd">
        <g id="selección-de-contrato-+de10-sucursales--" fill="#D62F4E">
            <g id="blob-shape-(17)" transform="translate(193.265970, -91.603576) rotate(60.000000) translate(-193.265970, 91.603576) translate(-20.234030, -326.603576)">
                <path d="M351.158768,0.253098226 C389.486594,4.10915033 413.649789,50.9028636 422.606836,96.862836 C431.563882,142.822808 425.31478,188.053257 400.005916,216.921539 C374.801204,245.894039 330.536731,258.504371 309.498087,301.54625 C288.355291,344.692347 290.438325,418.269989 264.608703,450.056365 C238.883232,481.84274 185.245105,471.837848 151.916561,440.259908 C118.692168,408.681968 105.673205,355.635197 85.3636227,317.178894 C65.0540408,278.72259 37.3496879,255.06519 19.5397467,221.611332 C1.83395732,188.053257 -6.18572378,144.802943 5.47926691,106.76351 C17.0401059,68.7240774 48.1814649,35.7913081 85.0511676,31.3099503 C122.025022,26.8285924 164.831372,50.798646 212.532852,43.1907594 C260.234331,35.5828729 312.726789,-3.49873625 351.158768,0.253098226 Z" id="Path"></path>
            </g>
        </g>
    </g>
</svg>