<?xml version="1.0" encoding="UTF-8"?>
<svg width="748px" height="165px" viewBox="0 0 748 165" version="1.1" xmlns="http://www.w3.org/2000/svg" xmlns:xlink="http://www.w3.org/1999/xlink">
    <!-- Generator: Sketch 52.6 (67491) - http://www.bohemiancoding.com/sketch -->
    <title>illustracion-log in</title>
    <desc>Created with Sketch.</desc>
    <defs>
        <polygon id="path-1" points="2.55552649e-05 0.107912236 21.9987945 0.107912236 21.9987945 28 2.55552649e-05 28"></polygon>
    </defs>
    <g id="ingreso" stroke="none" stroke-width="1" fill="none" fill-rule="evenodd">
        <g id="selección-de-contrato-+de10-sucursales--" transform="translate(0.000000, -475.000000)">
            <g id="illustracion-log-in" transform="translate(-44.000000, 474.000000)">
                <g id="Group-6">
                    <g id="Group-8" transform="translate(412.000000, 64.000000)">
                        <g id="Group-3">
                            <mask id="mask-2" fill="white">
                                <use xlink:href="#path-1"></use>
                            </mask>
                            <g id="Clip-2"></g>
                            <path d="M12.2858849,2.53397005 C8.83459726,1.08665455 5.17370685,0.278248128 1.4872,0.109349733 C0.996871233,0.086740107 0.00385753425,0.32062246 9.04109589e-05,1.54109305 C-0.00412876712,2.76171337 0.198843836,25.4737561 0.219336986,25.8766866 C0.272980822,26.9367936 0.882953425,27.6234674 1.51296712,27.8878952 C2.14343288,28.1527722 2.93859726,27.9437455 3.63446027,27.310077 C4.07943288,26.9046011 20.828063,11.3514246 21.5959534,10.5533497 C22.3632411,9.75482567 21.8714055,8.87634439 21.4615425,8.51923209 C18.9442,6.3256492 15.4998438,3.88156364 12.2858849,2.53397005" id="Fill-1" fill="#FFCA00" mask="url(#mask-2)"></path>
                        </g>
                        <path d="M7.76829997,10.153659 C7.13103852,11.6825737 5.37515316,12.4054754 3.84642292,11.7686135 C2.31741378,11.1309149 1.59439396,9.37511731 2.23151596,7.8462026 C2.86891685,6.31700899 4.6250811,5.59466511 6.15409023,6.23138753 C7.68323881,6.86866774 8.40556141,8.62488372 7.76829997,10.153659" id="Fill-4" fill="#FF273F"></path>
                        <path d="M9.8068858,19.4615717 C9.276015,20.7357815 7.81249698,21.3382221 6.53813811,20.8067535 C5.26467572,20.2758826 4.66208581,18.8126631 5.1928072,17.5384533 C5.72397683,16.2645424 7.18779368,15.6621018 8.46125606,16.1928233 C9.73591377,16.7241425 10.3380554,18.1875114 9.8068858,19.4615717" id="Fill-6" fill="#FF273F"></path>
                    </g>
                    <g id="blob-shape-(14)" transform="translate(461.000000, 15.000000)" fill="#D62F4E">
                        <path d="M305.383129,6.74792397 C313.397841,24.3487334 288.931879,80.0986655 302.514706,116.479286 C316.013168,152.859906 367.56042,169.871215 388.229939,198.504111 C408.983825,227.052792 398.944344,267.138846 371.694324,284.571226 C344.359938,301.919393 299.899379,296.529671 261.85059,302.845751 C223.886166,309.161831 192.417876,327.267927 156.646952,330.299645 C120.876028,333.331363 80.8868347,321.457133 53.0462569,295.519098 C25.2056792,269.581063 9.59808263,229.663438 3.01758245,188.061525 C-3.56291774,146.459612 -1.2006869,103.173411 28.6646601,86.751603 C58.6143725,70.3297952 115.89847,80.7723807 151.75376,75.8037312 C187.524684,70.7508672 201.8668,50.2867683 229.28555,29.9068837 C256.704301,9.44278474 297.284052,-10.9370998 305.383129,6.74792397 Z" id="Path"></path>
                    </g>
                    <g id="blob-shape-(13)" transform="translate(236.000000, 71.000000)" fill="#D62F4E">
                        <path d="M194.34028,82.2628762 C220.214905,107.225808 252.575437,115.607522 258.095357,138.292814 C263.615277,160.978106 242.225587,197.87587 238.430642,238.691174 C234.704696,279.597583 248.573495,324.330428 234.4287,326.15254 C220.352903,327.883546 178.263513,286.703819 150.80191,285.610552 C123.340308,284.608391 110.506494,323.601583 85.9428497,345.922453 C61.3792054,368.152217 25.0167319,373.709658 9.62995472,353.484217 C-5.68782347,333.16767 -0.0299053982,287.159347 8.0429777,250.899323 C16.1158608,214.639298 26.6037089,188.036466 31.847633,152.323075 C37.0915571,116.609684 37.0915571,71.6946278 52.5473333,40.4454106 C68.0721085,9.2872989 98.9836608,-8.20497431 124.099297,3.82096352 C149.214933,15.7557958 168.534654,57.2999447 194.34028,82.2628762 Z" id="Path"></path>
                    </g>
                    <path d="M162.218536,170.215113 C172.684248,135.848641 203.477593,133.422772 214.345832,137.668042 C232.057037,144.642414 253.592252,159.905171 269.894611,163.24074 C277.341367,164.756908 275.731258,186.38757 273.316094,190.733918 C216.257837,187.196193 151.752824,204.682662 162.218536,170.215113 Z" id="Path" fill="#F42F41"></path>
                    <path d="M242.623381,154.345889 C250.170769,155.963135 256.711839,156.266368 266.674392,153.33511 C274.22178,151.111397 280.662218,148.18014 289.618453,139.790677 C303.908175,126.347322 322.826962,129.177502 334.902783,135.242174 C357.142421,146.360738 396.288209,196.798589 325.745285,194.473798 C306.122075,193.867331 273.316094,192.553319 240.510112,190.329606 C230.950086,185.376791 226.622917,150.909242 242.623381,154.345889 Z" id="Path" fill="#F42F41"></path>
                    <path d="M214.345832,131.300137 C213.842673,130.794748 212.635091,127.155945 204.785807,127.155945 C198.949159,126.953789 191.301139,129.379658 199.049791,130.69367 C206.798443,132.007682 212.333195,136.050797 214.345832,137.668042 C216.358469,139.285288 219.779952,136.556186 214.345832,131.300137 Z" id="Path" fill="#FFFFFF"></path>
                    <path d="M255.806152,92.2840842 C255.806152,92.2840842 270.900929,82.9849212 278.146422,96.630432 C285.391915,110.377021 293.744358,99.9660014 294.448781,116.239536 C294.549413,125.134388 312.059354,117.856782 313.870728,134.635707 C315.178942,146.25966 307.732185,151.818942 296.964577,154.446967 C286.19697,157.074991 265.567441,155.356667 258.623844,143.631636 C251.680247,131.906604 263.353541,124.932232 252.787197,120.282651 C241.51643,115.329836 245.642336,98.1465999 255.806152,92.2840842 Z" id="Path" fill="#2DCBD2"></path>
                    <path d="M271.303457,106.839296 C271.303457,106.839296 274.423044,106.536062 274.423044,109.265164 C274.423044,111.994266 271.303457,112.095344 271.303457,112.095344 C271.303457,112.095344 267.177551,121.596663 273.11483,122.809597 C275.228099,126.044089 257.919421,126.246244 260.535849,124.123609 C262.045327,122.910675 261.441536,119.170794 259.529531,118.968639 C257.114366,118.665405 256.611207,119.37295 255.504257,116.744926 C251.579615,107.850074 253.793516,100.875702 254.799834,99.4606121 C256.711839,96.7315099 259.328267,96.7315099 259.328267,96.7315099 C259.328267,96.7315099 260.03269,105.929595 271.303457,106.839296 Z" id="Path" fill="#FFFFFF"></path>
                    <path d="M259.529531,161.724572 C260.636481,166.171998 260.03269,173.14637 259.328267,176.279784 C258.321949,180.626132 297.065209,179.716431 297.065209,179.716431 C297.065209,179.716431 304.411334,120.585884 265.768705,122.304208 C262.246591,122.304208 260.133322,124.123609 258.523212,125.943011 C252.887829,132.411994 236.082311,145.248882 214.345832,131.300137 L214.345832,137.668042 C214.345832,137.668042 222.39638,145.046726 238.396843,148.079062 C243.730331,149.190918 253.994779,149.393074 259.529531,161.724572 Z" id="Path" fill="#D62F4E"></path>
                    <g id="Group" transform="translate(331.000000, 111.000000)">
                        <path d="M22.1390061,2.52694644 C21.535215,24.6629973 29.7870264,32.7492259 31.0952404,36.4891067 C33.8123002,43.8677903 33.2085092,46.6979703 30.692713,54.0766539 C28.5794443,60.1413254 28.6800761,61.5564154 29.0826035,68.227554 C29.4851309,73.6857583 34.5167232,78.5374955 34.7179869,84.0967777 C34.9192505,89.1506706 34.2148276,94.507797 33.7116684,97.4390549 C33.5104047,98.8541449 31.7996633,99.6627678 29.9882901,99.6627678 C25.5604889,99.6627678 18.2143641,99.5616899 17.610573,99.6627678 C17.006782,99.5616899 9.05686614,99.5616899 4.72969676,99.4606121 C3.11958722,99.4606121 1.71074138,98.6519892 1.50947769,97.337977 C1.10695031,94.507797 0.402527384,89.2517484 0.603791076,84.0967777 C0.805054768,78.5374955 5.83664707,73.6857583 6.23917445,68.227554 C6.74233368,61.6574932 6.74233368,60.2424032 4.62906491,54.0766539 C2.11326877,46.6979703 1.50947769,43.8677903 4.22653753,36.4891067 C5.53475153,32.7492259 14.2897221,24.6629973 13.6859311,2.52694644 C15.2960406,2.42586859 20.6295284,2.42586859 22.1390061,2.52694644 Z" id="Path" fill="#FF7212"></path>
                        <path d="M24.2522749,4.24527003 C24.2522749,5.55928218 23.1453246,6.67113861 21.8371106,6.67113861 L13.5852992,6.67113861 C12.2770852,6.67113861 11.1701349,5.55928218 11.1701349,4.24527003 L11.1701349,2.42586859 C11.1701349,1.11185644 12.2770852,1.13686838e-13 13.5852992,1.13686838e-13 L21.8371106,1.13686838e-13 C23.1453246,1.13686838e-13 24.2522749,1.11185644 24.2522749,2.42586859 L24.2522749,4.24527003 Z" id="Path" fill="#2DCBD2"></path>
                    </g>
                    <g id="Group" transform="translate(422.000000, 142.000000)">
                        <path d="M0.50315923,2.52694644 C0.50315923,7.68191719 3.42148276,14.4541337 7.74865214,18.8004815 C12.4783489,23.5511409 18.7175233,26.1791652 25.3592252,26.1791652 C38.541997,26.1791652 49.4102364,15.8692237 50.2152911,2.83018002 C50.2152911,0.303233573 48.5045498,0.101077858 46.1900173,0.101077858 C43.774853,0.101077858 5.63538337,0.101077858 4.02527384,0.101077858 C2.4151643,-2.77555756e-17 0.50315923,-2.77555756e-17 0.50315923,2.52694644 Z" id="Path" fill="#FF7212"></path>
                        <path d="M25.5604889,14.0498222 C26.4661755,14.0498222 27.1705984,13.3422772 27.1705984,12.4325765 C27.1705984,11.5228758 26.5668073,10.5120972 26.1642799,9.80455221 C25.8623844,9.40024077 25.3592252,9.40024077 25.1579615,9.80455221 C24.7554341,10.5120972 24.151643,11.5228758 24.151643,12.4325765 C23.9503793,13.3422772 24.6548023,14.0498222 25.5604889,14.0498222 Z" id="Path" fill="#FFFFFF"></path>
                        <path d="M34.5167232,10.4110194 C35.2211461,9.80455221 35.2211461,8.89485149 34.7179869,8.18730648 C34.1141958,7.47976148 33.0072455,7.07545005 32.2021907,6.87329433 C31.6990315,6.77221647 31.3971359,7.07545005 31.3971359,7.58083933 C31.4977678,8.3894622 31.6990315,9.60239649 32.3028226,10.2088636 C32.9066136,10.9164086 33.9129321,11.0174865 34.5167232,10.4110194 Z" id="Path" fill="#FFFFFF"></path>
                        <path d="M16.5036227,10.4110194 C17.1074138,11.0174865 18.1137323,10.9164086 18.7175233,10.3099415 C19.3213144,9.60239649 19.5225781,8.49054005 19.7238418,7.68191719 C19.8244737,7.1765279 19.4219463,6.87329433 18.918787,6.97437219 C18.1137323,7.1765279 17.006782,7.58083933 16.4029909,8.18730648 C15.7991998,8.89485149 15.8998317,9.80455221 16.5036227,10.4110194 Z" id="Path" fill="#FFFFFF"></path>
                    </g>
                    <path d="M216.358469,98.8541449 C216.358469,106.738218 204.483911,121.899896 204.483911,121.899896 C203.276329,123.416064 202.27001,123.314986 201.062428,121.899896 C201.062428,121.899896 189.087239,106.738218 189.087239,98.8541449 C189.087239,91.2733056 195.225781,85.2086341 202.672538,85.2086341 C210.219926,85.2086341 216.358469,91.2733056 216.358469,98.8541449 Z" id="Path" fill="#2DCBD2"></path>
                    <path d="M208.307921,98.8541449 C208.307921,101.987559 205.792125,104.514505 202.672538,104.514505 C199.552951,104.514505 197.037154,101.987559 197.037154,98.8541449 C197.037154,95.7207313 199.552951,93.1937849 202.672538,93.1937849 C205.792125,93.1937849 208.307921,95.7207313 208.307921,98.8541449 Z" id="Path" fill="#FFFFFF"></path>
                    <g id="Group" transform="translate(440.767485, 32.344914)">
                        <g transform="translate(0.000000, 4.043114)" id="Path">
                            <path d="M78.0903125,75.1008483 C71.2473469,70.7545005 64.9075406,66.7113861 58.165207,57.9176125 C55.548779,54.5820432 54.6430924,50.7410846 54.6430924,47.2033596 C54.5424605,41.4419217 56.6557293,36.2869509 57.8633114,34.1643159 C59.7753165,30.7276688 66.2157546,20.619883 59.8759483,10.2088636 C53.5361421,-0.202155716 43.9761167,-0.808622862 35.6236735,1.81940144 C30.692713,3.43664716 27.2712303,7.07545005 25.2585933,10.7142529 C23.9503793,13.1401215 23.2459564,15.667068 23.2459564,17.3853915 C23.1453246,21.8328173 20.227001,26.1791652 18.8181552,28.0996445 C17.4093094,30.0201238 18.1137323,31.5362916 19.7238418,32.8503038 C21.3339513,34.0632381 21.2333195,37.9041967 21.2333195,37.9041967 C21.9377424,46.3947367 24.856066,46.192581 28.076285,46.6979703 C31.2965041,47.3044374 39.6489473,50.7410846 40.2527384,59.9391697 C40.5546339,64.1844397 39.6489473,67.6210869 37.8375741,70.9566562 C35.7243053,74.8986926 36.9318875,79.3461184 33.4097729,84.4000113 C27.0699666,93.6991742 32.4034544,98.1465999 30.3908175,105.929595 C27.0699666,120.383729 100.128687,89.0495927 78.0903125,75.1008483 Z" fill="#FFFFFF"></path>
                            <path d="M19.9251055,111.084566 C16.6042546,125.538699 0.805054768,144.339181 0.805054768,144.339181 L20.6295284,144.137025 C20.6295284,144.137025 27.1705984,138.072354 29.8876582,134.93894 C35.6236735,128.571035 38.8438925,134.231395 39.7495792,136.050797 C41.158425,138.880977 43.8754848,143.833792 43.8754848,143.833792 L106.770389,143.126247 C106.770389,143.126247 100.028055,89.0495927 77.9896806,74.9997705 C75.5745163,73.4836026 73.2599839,71.9674347 70.8448196,70.2491112 C55.2468834,65.1952183 43.774853,68.3286319 37.6363104,70.9566562 C35.5230416,74.8986926 32.4034544,78.8407291 28.9819716,83.894622 C22.7427972,93.2948627 22.0383743,103.301571 19.9251055,111.084566 Z" fill="#D62F4E"></path>
                            <path d="M35.6236735,20.7209608 C36.5293601,23.6522187 37.8375741,26.8867102 41.0577932,27.2910216 C44.2780122,27.695333 45.6868581,29.7168902 43.8754848,33.6589266 C42.0641116,37.6009631 48.9070771,45.5861139 54.6430924,47.1022817 C54.5424605,41.3408438 56.6557293,36.1858731 57.8633114,34.0632381 C59.7753165,30.6265909 66.2157546,20.5188051 59.8759483,10.1077858 C53.5361421,-0.303233573 43.9761167,-0.90970072 35.6236735,1.71832358 C30.692713,3.33556931 27.2712303,6.97437219 25.2585933,10.6131751 C25.3592252,10.7142529 32.2021907,11.0174865 35.6236735,20.7209608 Z" fill="#2DCBD2"></path>
                            <path d="M117.839892,83.5913884 C125.689176,97.7422885 131.827718,136.758342 104.355224,144.339181 C61.2847942,156.16529 51.4228733,127.661334 48.8064453,114.116901 C46.5925447,102.594026 48.2026542,98.1465999 50.0140274,89.6560599 C52.6304554,77.5267169 39.5483155,63.6790504 77.083994,60.2424032 C94.7951989,58.6251575 105.160279,60.9499482 117.839892,83.5913884 Z" fill="#2DCBD2"></path>
                        </g>
                        <path d="M57.0582567,15.9703015 C70.0397648,1.21293429 94.694567,-7.37868362 108.380498,12.1293429 C113.210827,19.1037151 114.619673,24.7640752 124.481593,25.2694644 C126.99739,25.3705423 129.311922,25.0673087 131.223927,24.2586859 C134.444146,22.8435959 137.161206,25.8759316 135.651728,30.6265909 C134.444146,34.2653938 132.431509,37.6009631 129.010027,40.1279095 C121.160743,45.8893474 107.172916,47.0012039 98.1160498,44.6764131 C87.8516015,41.947311 84.6313825,33.5578488 78.2915762,26.5834766 C72.0524017,19.8112601 64.1024859,19.204793 55.548779,20.5188051" id="Path" fill="#2DCBD2"></path>
                    </g>
                    <g id="Group" transform="translate(226.421653, 14.150900)">
                        <path d="M13.3840355,2.93125788 C12.4783489,1.61724572 11.0695031,0.808622862 9.35876167,0.808622862 C7.54738845,0.808622862 6.03791076,1.71832358 5.13222414,3.13341359 C5.0315923,3.33556931 4.12590568,3.94203645 3.82401015,3.94203645 C1.71074138,4.44742574 0.100631846,6.36790504 0.100631846,8.69269577 C0.100631846,11.7250315 1.81137323,12.0282651 2.61642799,12.9379658 C3.22021907,13.8476665 5.0315923,14.4541337 9.35876167,14.4541337 C13.6859311,14.4541337 15.7991998,13.2411994 16.0004635,12.9379658 C16.8055183,11.9271872 18.4156278,11.1185644 18.5162597,8.69269577 C18.5162597,6.36790504 16.9061501,4.44742574 14.7928814,3.94203645 C14.4909858,4.04311431 13.5852992,3.23449145 13.3840355,2.93125788 Z" id="Path" fill="#2DCBD2"></path>
                        <path d="M2.61642799,13.1401215 L8.05054768,25.7748537 C8.05054768,25.7748537 8.45307506,26.7856323 9.35876167,26.7856323 C10.2644483,26.7856323 10.6669757,25.7748537 10.6669757,25.7748537 L16.1010954,13.1401215 L2.61642799,13.1401215 Z" id="Path" fill="#FDC912"></path>
                    </g>
                    <path d="M97.9147861,164.352597 C97.9147861,167.9914 98.4179453,171.529125 99.4242638,174.864694 L50.7184504,177.492718 L83.3231685,125.134388 C89.5623429,132.715227 92.9838257,132.007682 110.795662,135.646485 C102.745115,143.227324 97.9147861,153.33511 97.9147861,164.352597 Z" id="Path" fill="#F42F41"></path>
                    <g id="Group">
                        <path d="M134.041619,32.8503038 C134.041619,32.8503038 136.959942,36.9944959 137.664365,46.192581 C138.167525,52.1561746 140.884584,56.5025225 141.890903,61.152104 C142.494694,64.1844397 137.161206,63.3758168 136.658047,66.7113861 C135.249201,76.8191719 132.632773,86.8258798 125.689176,85.5118677 C116.732941,83.7935441 113.512722,80.4579748 111.298822,86.6237241 C109.386817,91.7786949 109.990608,105.929595 118.544315,109.063009 C119.550633,109.46732 120.556951,110.680254 121.764534,110.680254 C133.53846,111.084566 141.18648,129.986125 141.387744,130.794748 C141.589007,131.603371 63.9012222,112.903967 63.9012222,112.903967 C63.9012222,112.903967 80.4048449,87.2301913 82.2162181,75.1008483 C83.1219048,68.6318654 82.9206411,59.2316247 80.7067405,52.1561746 C78.6941035,45.8893474 74.8700934,41.7451553 74.1656705,39.824676 C72.1530336,33.5578488 70.8448196,17.789703 97.6128906,13.0390437 C126.393599,8.08622862 134.041619,32.8503038 134.041619,32.8503038 Z" id="Path" fill="#FFFFFF"></path>
                        <path d="M37.1331512,171.832358 L90.2667658,184.97248 C90.2667658,184.97248 172.78488,181.737988 162.721695,151.818942 C158.193262,138.173432 148.633236,115.633069 126.896758,110.781332 C95.0970944,103.80696 90.3673977,106.131751 81.1092678,94.8110306 L37.1331512,171.832358 Z" id="Path" fill="#F42F41"></path>
                        <path d="M1.40884584,155.154512 C-5.83664707,183.961701 18.918787,186.994037 38.9445244,186.994037 C58.8696299,186.994037 150.343978,189.318828 148.431973,164.150441 C146.821863,142.620857 120.657583,147.068283 106.770389,139.18421 C79.9016857,123.921454 120.758215,87.3312691 56.15257,88.7463591 C36.0262009,89.1506706 12.8808763,108.860853 1.40884584,155.154512 Z" id="Path" fill="#2DCBD2"></path>
                        <path d="M132.632773,1.01077858 C122.972116,1.11185644 129.311922,4.04311431 122.871484,7.58083933 C116.431046,11.1185644 88.4553926,7.58083933 80.4048449,17.5875473 C67.4233368,31.0309023 73.9644068,40.4311431 77.9896806,49.4270725 C80.6061086,55.3906661 82.7193774,67.8232426 82.6187455,73.4836026 C87.3484423,73.9889919 92.3800346,70.6534226 92.6819301,66.3070747 C93.4869849,55.4917439 88.85792,65.4984518 85.6377009,55.1885104 C83.7256958,47.7087489 90.166134,45.9904253 93.2857212,48.1130603 C96.5059403,50.3367732 101.436901,49.022761 100.933741,45.2828803 C100.531214,42.4527003 100.229319,39.7235981 101.235637,37.8031188 C102.241955,35.8826395 102.845747,34.3664716 106.569125,32.8503038 C110.292503,31.3341359 112.103876,33.6589266 115.927887,32.7492259 C121.362006,31.4352138 123.274011,29.110423 126.99739,30.2222795 C150.042082,36.8934181 165.841282,-0.202155716 132.632773,1.01077858 Z" id="Path" fill="#2DCBD2"></path>
                    </g>
                    <g id="Group-3" transform="translate(667.000000, 115.000000)" fill="#00CCD4">
                        <path d="M25.6818575,18.6716503 C22.2408188,15.8159012 13.4160654,14.970139 9.30677563,15.7139429 C10.302887,11.8341476 9.86202292,4.15740527 7.59746465,0.489193547 C7.47055099,0.283903684 7.15625573,-0.120153453 6.52502118,0.0344433162 C4.28747804,0.518373544 -4.41771892,13.8382984 2.82601658,21.5740873 C10.069982,29.3099907 25.324338,21.8383094 25.9590213,19.6174255 C26.1073172,18.9926303 25.8154388,18.7823054 25.6818575,18.6716503" id="Fill-13"></path>
                        <path d="M13.6883875,1.04766489 C10.5860487,2.03078028 7.31101805,4.97538456 5.14977469,9.09873482 C2.85310033,13.4816761 2.42535065,18.0302527 3.72901818,21 C6.99758873,20.2203448 10.5531715,17.1695442 12.8499612,12.7868236 C15.0195104,8.64759347 15.5213203,4.36004144 14.4721338,1.39481545 C14.4103016,1.22046823 14.2302268,0.873317673 13.6883875,1.04766489" id="Fill-15"></path>
                        <path d="M24.5766652,10.6977003 C21.5664047,9.48811983 17.1496366,9.82774208 12.8186519,11.9010161 C8.21520542,14.1042838 4.93293759,17.6798954 4,21.0562394 C7.00526115,22.5477341 11.7053987,22.3023241 16.3083907,20.0990564 C20.6563048,18.0181924 23.8252931,14.7131703 24.9497948,11.5080229 C25.0160355,11.3195982 25.1037505,10.906365 24.5766652,10.6977003" id="Fill-17"></path>
                        <path d="M19.3995723,6.00553348 C16.1762478,5.8889334 12.0869792,7.61838695 8.60384874,10.878388 C4.90189832,14.3431251 2.86933217,18.6151463 3.00652156,21.9505945 C6.31056582,22.3222287 10.6975524,20.5860306 14.3995028,17.1214078 C17.8957261,13.8490609 19.9027898,9.85665124 19.9995624,6.61333998 C20.0052549,6.42266455 19.9632442,6.02313781 19.3995723,6.00553348" id="Fill-19"></path>
                    </g>
                </g>
            </g>
        </g>
    </g>
</svg>