<svg xmlns="http://www.w3.org/2000/svg" width="200" height="46" viewBox="0 0 200 46">
    <path fill="#F52F41" fill-rule="evenodd" d="M86.181 24.867c.332-1.99 1.435-3.065 3.254-3.065 1.583 0 2.662.941 3.066 2.615l-6.32.45zm3.284-6.382c4.128 0 6.952 3.053 6.966 7.504 0 .443-.007.784-.052 1.11l-10.061.663c.533 1.726 1.888 2.486 3.56 2.486.934 0 1.924-.283 2.797-.79 0 0 .867-.5 1.485.14l1.606 1.756c-1.627 1.49-3.697 2.168-6.11 2.168-4.392 0-7.44-2.978-7.44-7.477 0-4.495 2.958-7.56 7.25-7.56zm58.698 0c4.467 0 7.767 3.214 7.767 7.518 0 4.306-3.3 7.52-7.767 7.52-4.452 0-7.736-3.214-7.736-7.52 0-4.304 3.284-7.518 7.736-7.518zm0 11.454c2.175 0 3.817-1.622 3.817-3.936s-1.642-3.933-3.817-3.933c-2.176 0-3.801 1.619-3.801 3.933s1.625 3.936 3.801 3.936zm17.221-5.544c3.106.471 4.837 1.86 4.837 4.273 0 2.952-2.424 4.854-6.583 4.854-1.952 0-4.511-.37-6.375-1.682l1.135-2.174c.364-.69 1.122-.308 1.122-.308 1.089.578 2.4.963 4.15.963 1.788 0 2.648-.501 2.648-1.342 0-.69-.727-1.073-2.384-1.311l-1.168-.16c-3.313-.458-4.956-1.905-4.956-4.337 0-2.933 2.277-4.67 6.051-4.67 2.293 0 4.081.429 5.99 1.355l-.936 2.152c-.355.759-1.308.434-1.308.434-1.074-.408-2.409-.747-3.629-.758-1.463 0-2.203.515-2.203 1.296 0 .828 1.036 1.033 2.338 1.225l1.271.19zm-46.889-12.552c1.39 0 2.471 1.09 2.471 2.477 0 1.385-1.08 2.447-2.47 2.447-1.392 0-2.458-1.062-2.458-2.447 0-1.387 1.066-2.477 2.457-2.477zm.418 7.027c.847 0 1.537.685 1.537 1.531v12.751h-2.326c-.85 0-1.536-.685-1.536-1.53V18.87h2.325zm-7.335-5.524c.848 0 1.537.684 1.537 1.532v18.274h-2.236a1.531 1.531 0 0 1-1.535-1.53v-.046c-.935 1.148-2.324 1.946-4.292 1.946-3.951 0-6.937-3.23-6.937-7.519 0-4.29 2.986-7.518 6.937-7.518 1.924 0 3.285.752 4.216 1.871v-7.01h2.31zm-5.815 16.593c2.204 0 3.697-1.68 3.697-3.936 0-2.255-1.493-3.933-3.697-3.933-2.266 0-3.698 1.75-3.698 3.933s1.432 3.936 3.698 3.936zm30.732-16.593c.851 0 1.54.684 1.54 1.532v18.274h-2.24a1.532 1.532 0 0 1-1.533-1.53v-.046c-.935 1.148-2.324 1.946-4.292 1.946-3.948 0-6.938-3.23-6.938-7.519 0-4.29 2.99-7.518 6.938-7.518 1.923 0 3.283.752 4.216 1.871v-7.01h2.31zM130.68 29.94c2.207 0 3.7-1.68 3.7-3.936 0-2.255-1.493-3.933-3.7-3.933-2.261 0-3.697 1.75-3.697 3.933s1.436 3.936 3.697 3.936zM197.69 18.87H200v14.282h-2.236c-.85 0-1.535-.685-1.535-1.53v-.046c-.933 1.148-2.325 1.946-4.29 1.946-3.95 0-6.94-3.23-6.94-7.519 0-4.29 2.99-7.518 6.94-7.518 1.922 0 3.282.793 4.214 1.916 0-.846.688-1.53 1.537-1.53zm-5.042 11.069c2.204 0 3.698-1.68 3.698-3.936 0-2.255-1.494-3.933-3.698-3.933-2.262 0-3.7 1.75-3.7 3.933s1.438 3.936 3.7 3.936zm-8.155-16.593h3.473l-7.87 12.501v7.305h-2.59a1.531 1.531 0 0 1-1.536-1.53V25.83l-7.973-12.484h3.623c.702 0 1.264.072 1.835 1.018l4.6 7.739 4.603-7.74c.568-.945 1.13-1.017 1.835-1.017zM69.545 31.622c0 .846-.688 1.53-1.536 1.53h-2.593V13.346h8.447c4.943 0 7.575 2.98 7.575 6.974 0 3.965-2.632 6.944-7.546 6.944h-4.349l.002 4.358zm4.244-8.115c2.25 0 3.418-1.326 3.418-3.187 0-1.842-1.169-3.187-3.418-3.187h-4.246v6.374h4.246zm-45.881-2.54c-.3-.87.152-1.731 1.293-2.124 5.585-1.926 11.585-3.512 20.145-4.376.03.409.048.82.048 1.239 0 .626-.029 1.24-.074 1.843-6.112.586-13.069 2.272-19.001 4.295-1.165.397-2.118-.028-2.411-.877zm-11.583-4.419c-1.146 3.742-3.323 5.302-7.29 7.15-1.505.7-3.146 1.29-4.829 1.723l5.415-22.47C10.058 1.314 11.133 0 13.282 0h17.311c7.105 0 12.278 2.274 15.38 5.917-6.247-.299-16.352.239-22.62 2.428-5.115 1.786-6.133 5.285-7.028 8.203zm9.53-2.815c-.27-.915.227-1.771 1.236-2.09 5.19-1.635 12.41-2.826 20.662-3.064.475.927.849 1.91 1.117 2.942-7.387.245-14.79 1.575-20.762 3.268-1.084.308-1.995-.18-2.253-1.056zm3.708 13.641c3.664-1.444 10.454-4.984 19.3-6.727-2.078 9.306-10.242 15.207-23.051 15.207h-9.645l-1.721 6.76c-.475 1.606-1.126 2.499-3.224 2.499H1.907c-1.464 0-2.153-1.275-1.828-2.563l2.087-8.662c3.19-2.508 7.737-5.463 12.866-7.114 5.327-1.716 6.902 3.61 14.531.6z"/>
</svg>
