<?xml version="1.0" encoding="utf-8"?>
<!-- Generator: Adobe Illustrator 23.0.3, SVG Export Plug-In . SVG Version: 6.00 Build 0)  -->
<svg version="1.1" id="Capa_1" xmlns="http://www.w3.org/2000/svg" xmlns:xlink="http://www.w3.org/1999/xlink" x="0px" y="0px"
	 viewBox="0 0 174 41" style="enable-background:new 0 0 174 41;" xml:space="preserve">
<style type="text/css">
	.st0{fill:#F52F41;}
</style>
<title>rojo ES</title>
<desc>Created with Sketch.</desc>
<g>
	<g>
		<path class="st0" d="M102.9,11.6c-1.5,0-2.6,1.1-2.6,2.6c0,1.2,0.7,1.9,2,1.9c1.5,0,2.6-1.1,2.6-2.6
			C105,12.3,104.2,11.6,102.9,11.6z"/>
		<path class="st0" d="M98.4,12.2c-0.1-0.1-0.1-0.1-0.2-0.1h-3.2c-0.1,0-0.3,0.1-0.3,0.2c0,0-1.2,6.2-1.3,6.6
			c-0.8-1.4-2.4-2.3-4.4-2.3c-3.9,0-6.8,3.1-6.8,7.5c0,3.6,2.1,6,5.3,6c1.5,0,2.9-0.6,3.9-1.7c-0.1,0.3-0.1,0.6-0.2,1
			c0,0.1,0,0.2,0.1,0.2c0.1,0.1,0.1,0.1,0.2,0.1l3.2,0c0.1,0,0.3-0.1,0.3-0.2l3.4-17C98.5,12.3,98.4,12.2,98.4,12.2z M92.2,23.3
			c-0.1,0.5-0.2,0.9-0.4,1.3c-0.2,0.4-0.5,0.7-0.8,1c-0.3,0.3-0.6,0.5-1,0.7c-0.7,0.3-1.6,0.3-2.2,0c-0.3-0.1-0.6-0.3-0.8-0.5
			c-0.2-0.2-0.4-0.5-0.5-0.8c-0.1-0.3-0.2-0.7-0.1-1.1c0-0.5,0.1-1,0.3-1.4c0.2-0.4,0.4-0.8,0.8-1.2c0.3-0.3,0.7-0.6,1.1-0.8
			c0.4-0.2,0.9-0.3,1.3-0.3c0.4,0,0.8,0.1,1.1,0.2c0.3,0.1,0.6,0.4,0.8,0.6c0.2,0.3,0.4,0.6,0.4,1C92.3,22.4,92.3,22.8,92.2,23.3z"
			/>
		<path class="st0" d="M103.4,18h-3.3c-0.1,0-0.3,0.1-0.3,0.2l-2.2,11.1c0,0.1,0,0.2,0.1,0.2s0.1,0.1,0.2,0.1h3.3
			c0.1,0,0.3-0.1,0.3-0.2l2.2-11.1c0-0.1,0-0.2-0.1-0.2C103.6,18,103.5,18,103.4,18z"/>
		<path class="st0" d="M55.1,28.6c0.3-1.5,1-4.8,1-4.9c0.1,0,3.9,0,3.9,0c4.5,0,7.3-2.4,7.3-6.3c0-3.4-2.3-5.4-6.2-5.4h-6.7
			c-0.1,0-0.3,0.1-0.3,0.2l-3.4,16.9c0,0.1,0,0.2,0.1,0.2c0.1,0.1,0.1,0.1,0.2,0.1h1.3l1.7,0C54,29.5,54.9,29.6,55.1,28.6z
			 M60.1,20.1c0,0-3.2,0-3.3,0c0-0.1,0.9-4.2,0.9-4.4c0.2,0,3.1,0,3.1,0c1.5,0,2.3,0.7,2.3,1.9C63,19.2,62,20.1,60.1,20.1z"/>
		<path class="st0" d="M128,16.6c-4.4,0-7.5,3.1-7.5,7.4c0,3.7,2.5,6,6.4,6c4.4,0,7.5-3.1,7.5-7.4C134.5,19,131.9,16.6,128,16.6z
			 M127.2,26.2c-1.7,0-2.6-0.9-2.6-2.5c0-2,1.4-3.4,3.3-3.4c1.7,0,2.6,0.9,2.6,2.5C130.4,24.8,129.1,26.2,127.2,26.2z"/>
		<path class="st0" d="M121,12.2c-0.1-0.1-0.1-0.1-0.2-0.1h-3.2c-0.1,0-0.3,0.1-0.3,0.2c0,0-1.2,6.2-1.3,6.6
			c-0.8-1.4-2.4-2.3-4.4-2.3c-3.9,0-6.8,3.1-6.8,7.5c0,3.6,2.1,6,5.3,6c1.5,0,2.9-0.6,3.9-1.7c-0.1,0.3-0.1,0.6-0.2,1
			c0,0.1,0,0.2,0.1,0.2c0.1,0.1,0.1,0.1,0.2,0.1l3.2,0c0.1,0,0.3-0.1,0.3-0.2l3.4-17C121.1,12.3,121,12.2,121,12.2z M114.9,23.3
			c-0.1,0.5-0.2,0.9-0.4,1.3c-0.2,0.4-0.5,0.7-0.8,1c-0.3,0.3-0.6,0.5-1,0.7c-0.7,0.3-1.6,0.3-2.2,0c-0.3-0.1-0.6-0.3-0.8-0.5
			c-0.2-0.2-0.4-0.5-0.5-0.8c-0.1-0.3-0.2-0.7-0.1-1.1c0-0.5,0.1-1,0.3-1.4c0.2-0.4,0.4-0.8,0.8-1.2c0.3-0.3,0.7-0.6,1.1-0.8
			c0.4-0.2,0.9-0.3,1.3-0.3c0.4,0,0.8,0.1,1.1,0.2c0.3,0.1,0.6,0.4,0.8,0.6c0.2,0.3,0.4,0.6,0.4,1C114.9,22.4,114.9,22.8,114.9,23.3
			z"/>
		<path class="st0" d="M145.1,17.6c-1.7-0.8-3.4-1.1-5-1c-2.8,0.2-4.3,1.9-4.1,4.3c0.1,1.5,1,2.6,2.5,3.4l1.7,0.9
			c0.7,0.4,0.8,0.6,0.8,0.8c0,0.5-0.5,0.7-0.9,0.7c-1.1,0.1-2.4-0.3-3.9-1.2c-0.1,0-0.1-0.1-0.2,0c-0.1,0-0.1,0.1-0.2,0.1l-1.4,2.5
			c-0.1,0.1,0,0.3,0.1,0.4c1.7,1.2,3.7,1.7,5.8,1.5c3.1-0.3,4.7-1.9,4.5-4.5c-0.1-1.5-0.9-2.5-2.6-3.4l-1.6-0.8
			c-0.9-0.5-1-0.6-1-0.9c0-0.1,0-0.5,0.8-0.6c0.9-0.1,2,0.2,3.2,0.7c0.1,0,0.1,0,0.2,0c0.1,0,0.1-0.1,0.2-0.2l1.1-2.5
			C145.3,17.8,145.2,17.6,145.1,17.6z"/>
		<path class="st0" d="M162.4,12.6c-0.1-0.1-0.2-0.2-0.3-0.2h-4.5c-0.1,0-0.2,0.1-0.3,0.1c0,0-4.5,6.4-4.8,7
			c-0.1-0.6-2.3-6.9-2.3-6.9c0-0.1-0.2-0.2-0.3-0.2h-4c-0.1,0-0.2,0-0.3,0.1c-0.1,0.1-0.1,0.2,0,0.3l4.2,10.7l-1.3,6.2
			c0,0.1,0,0.2,0.1,0.3c0.1,0.1,0.1,0.1,0.2,0.1h3.2c0.4,0,0.8-0.3,0.9-0.7l1.1-5.8l8.3-10.7C162.5,12.8,162.5,12.7,162.4,12.6z"/>
		<path class="st0" d="M172.1,17.4c-0.1-0.1-0.1-0.1-0.2-0.1h-3.1c-0.1,0-0.2,0.1-0.3,0.2c0,0-0.1,0.6-0.2,1l0,0
			c-0.7-0.9-1.8-1.4-2.9-1.5c-1-0.1-2,0.1-2.9,0.5c-3.1,1.2-5.1,4.2-5.1,7.5c0,2.9,1.9,4.8,4.8,5c1.5,0.1,2.9-0.4,4.1-1.4
			c-0.1,0.3-0.1,0.7-0.2,1c0,0.1,0,0.2,0.1,0.2c0.1,0.1,0.1,0.1,0.2,0.1l3.1,0c0.1,0,0.2-0.1,0.3-0.2l2.4-12.1
			C172.2,17.6,172.1,17.5,172.1,17.4z M167.2,23.6c-0.1,0.4-0.2,0.8-0.4,1.2c-0.2,0.4-0.4,0.7-0.7,1c-0.3,0.3-0.6,0.5-1,0.6
			c-0.7,0.3-1.5,0.3-2.1,0c-0.3-0.1-0.5-0.3-0.7-0.5c-0.2-0.2-0.4-0.5-0.5-0.8c-0.1-0.3-0.1-0.7-0.1-1.1c0-0.5,0.1-0.9,0.3-1.4
			c0.2-0.4,0.4-0.8,0.7-1.1c0.3-0.3,0.6-0.6,1-0.8c0.4-0.2,0.8-0.3,1.3-0.3c0.4,0,0.7,0.1,1.1,0.2c0.3,0.1,0.6,0.3,0.8,0.6
			c0.2,0.3,0.3,0.6,0.4,0.9C167.3,22.8,167.3,23.2,167.2,23.6z"/>
		<path class="st0" d="M74.9,16.6c-4.3,0-7.4,3.1-7.4,7.4c0,3.7,2.5,6,6.5,6c1.8,0,3.3-0.5,4.9-1.5c0.1-0.1,0.2-0.3,0-0.4l-2-2
			c-0.1-0.1-0.2-0.1-0.3,0c-0.9,0.5-1.7,0.7-2.6,0.7c-1.8,0-2.9-0.8-2.9-2.3l9,0c0.1,0,0.2-0.1,0.3-0.2c0.2-0.9,0.3-1.6,0.3-2.3
			C80.8,18.6,78.5,16.6,74.9,16.6z M71.6,21.6c0.6-1.4,1.7-2.2,3.3-2.2c1.6,0,2.4,0.7,2.5,2.2C77.1,21.6,71.9,21.6,71.6,21.6z"/>
	</g>
	<path class="st0" d="M28.4,1.3H28l-2,0H2.5c-0.4,0-0.7,0.3-0.7,0.7v3.7c0,4.1,2.9,6.3,8.1,6.3l18.5,0c2,0,3.5,1.6,3.5,3.5
		s-1.6,3.5-3.5,3.5h0H7.7c-0.3,0-0.6,0.2-0.6,0.5L2.1,38.9c0,0.2,0,0.4,0.1,0.6c0.1,0.2,0.3,0.3,0.5,0.3h6.6c2.5,0,3.6-2,3.9-3.1
		l1.9-7h13.2c7.8,0,14.2-6.4,14.2-14.2C42.6,7.6,36.2,1.3,28.4,1.3z"/>
</g>
</svg>
