<svg xmlns="http://www.w3.org/2000/svg" width="220" height="53" viewBox="0 0 220 53">
    <path fill="#FFF" fill-rule="evenodd" d="M94.8 29.208c.364-2.336 1.578-3.6 3.578-3.6 1.741 0 2.928 1.106 3.373 3.072l-6.951.528zm3.612-7.496c4.54 0 7.647 3.587 7.662 8.815 0 .52-.008.92-.057 1.302l-11.067.78c.586 2.028 2.076 2.92 3.916 2.92 1.027 0 2.116-.333 3.077-.929 0 0 .953-.587 1.633.165l1.767 2.063c-1.79 1.75-4.067 2.547-6.72 2.547-4.832 0-8.185-3.498-8.185-8.782 0-5.28 3.253-8.88 7.974-8.88zm64.567 0c4.914 0 8.544 3.776 8.544 8.831 0 5.058-3.63 8.832-8.544 8.832-4.897 0-8.509-3.774-8.509-8.832 0-5.055 3.612-8.831 8.51-8.831zm0 13.454c2.393 0 4.199-1.905 4.199-4.623 0-2.719-1.806-4.62-4.199-4.62s-4.181 1.901-4.181 4.62c0 2.718 1.788 4.623 4.181 4.623zm18.943-6.512c3.417.554 5.321 2.185 5.321 5.02 0 3.467-2.666 5.701-7.24 5.701-2.148 0-4.964-.435-7.014-1.976l1.25-2.554c.4-.81 1.233-.362 1.233-.362 1.198.68 2.64 1.132 4.565 1.132 1.967 0 2.913-.589 2.913-1.576 0-.812-.8-1.26-2.623-1.54l-1.284-.189c-3.644-.537-5.452-2.236-5.452-5.093 0-3.445 2.505-5.486 6.657-5.486 2.521 0 4.488.504 6.59 1.592l-1.032 2.527c-.39.892-1.438.51-1.438.51-1.181-.479-2.65-.877-3.992-.89-1.61 0-2.424.605-2.424 1.522 0 .973 1.14 1.213 2.572 1.44l1.398.222zM130.345 13.91c1.53 0 2.718 1.28 2.718 2.91 0 1.626-1.189 2.873-2.718 2.873-1.53 0-2.703-1.247-2.703-2.874 0-1.63 1.173-2.909 2.703-2.909zm.459 8.254c.932 0 1.69.804 1.69 1.798V38.94h-2.558c-.935 0-1.69-.804-1.69-1.797V22.165h2.558zm-8.068-6.488c.933 0 1.69.803 1.69 1.8V38.94h-2.46c-.933 0-1.687-.804-1.687-1.797v-.054c-1.029 1.348-2.557 2.286-4.722 2.286-4.346 0-7.63-3.793-7.63-8.832 0-5.039 3.284-8.831 7.63-8.831 2.116 0 3.614.884 4.638 2.198v-8.233h2.541zm-6.396 19.49c2.424 0 4.066-1.974 4.066-4.624 0-2.648-1.642-4.62-4.066-4.62-2.493 0-4.068 2.057-4.068 4.62 0 2.564 1.575 4.623 4.068 4.623zm33.805-19.49c.936 0 1.693.803 1.693 1.8V38.94h-2.462c-.933 0-1.688-.804-1.688-1.797v-.054c-1.029 1.348-2.557 2.286-4.72 2.286-4.344 0-7.632-3.793-7.632-8.832 0-5.039 3.288-8.831 7.631-8.831 2.116 0 3.612.884 4.638 2.198v-8.233h2.54zm-6.399 19.49c2.428 0 4.07-1.974 4.07-4.624 0-2.648-1.642-4.62-4.07-4.62-2.486 0-4.066 2.057-4.066 4.62 0 2.564 1.58 4.623 4.066 4.623zm73.713-13.002H220V38.94h-2.46c-.934 0-1.688-.804-1.688-1.797v-.054c-1.026 1.348-2.557 2.286-4.72 2.286-4.344 0-7.634-3.793-7.634-8.832 0-5.039 3.29-8.831 7.634-8.831 2.115 0 3.611.932 4.636 2.251 0-.994.757-1.798 1.691-1.798zm-5.546 13.001c2.424 0 4.068-1.973 4.068-4.623 0-2.648-1.644-4.62-4.068-4.62-2.489 0-4.07 2.057-4.07 4.62 0 2.564 1.581 4.623 4.07 4.623zm-8.97-19.49h3.82l-8.657 14.684v8.58h-2.85c-.934 0-1.689-.804-1.689-1.797V30.34l-8.77-14.664h3.985c.772 0 1.39.084 2.018 1.196l5.061 9.09 5.063-9.09c.624-1.112 1.243-1.196 2.019-1.196zM76.499 37.143c0 .993-.756 1.797-1.69 1.797h-2.851V15.676h9.292c5.436 0 8.331 3.501 8.331 8.192 0 4.657-2.895 8.156-8.3 8.156h-4.783l.001 5.12zm4.669-9.532c2.474 0 3.76-1.558 3.76-3.743 0-2.164-1.286-3.744-3.76-3.744h-4.67v7.487h4.67zm-50.47-2.984c-.33-1.022.168-2.033 1.423-2.494 6.143-2.263 12.744-4.125 22.16-5.14.032.48.052.964.052 1.455 0 .736-.031 1.456-.082 2.165-6.722.688-14.375 2.668-20.9 5.045-1.282.466-2.33-.034-2.652-1.03zm-12.74-5.19c-1.26 4.396-3.655 6.228-8.019 8.398a29.808 29.808 0 0 1-5.312 2.025l5.956-26.393C11.063 1.542 12.246 0 14.61 0h19.042c7.815 0 13.505 2.671 16.918 6.95-6.873-.35-17.987.28-24.884 2.852-5.625 2.097-6.745 6.208-7.729 9.635zm10.483-3.307c-.297-1.074.25-2.08 1.359-2.454 5.71-1.921 13.65-3.32 22.728-3.6.523 1.09.934 2.245 1.23 3.457-8.127.287-16.27 1.85-22.839 3.838-1.193.362-2.194-.212-2.478-1.24zm4.078 16.024c4.03-1.697 11.5-5.855 21.23-7.902-2.285 10.931-11.266 17.862-25.356 17.862H17.784l-1.894 7.94c-.522 1.887-1.238 2.935-3.546 2.935H2.098c-1.61 0-2.368-1.497-2.011-3.01l2.296-10.174c3.51-2.946 8.51-6.417 14.152-8.357 5.86-2.015 7.593 4.24 15.984.706z"/>
</svg>
